<svg width="14" height="16" viewBox="0 0 14 16" fill="none" xmlns="http://www.w3.org/2000/svg">
<path fill-rule="evenodd" clip-rule="evenodd" d="M7 0C4.51001 0 3.07848 1.79871 2.50992 2.97409C2.30219 3.40354 2.25 3.85177 2.25 4.23683V4.84451C0.95608 5.17755 0 6.35212 0 7.75V12.75C0 14.4069 1.34315 15.75 3 15.75H11C12.6569 15.75 14 14.4069 14 12.75V7.75C14 6.35212 13.0439 5.17755 11.75 4.84451V4.23683C11.75 3.85177 11.6978 3.40354 11.4901 2.97409C10.9215 1.79871 9.48999 0 7 0ZM10.25 4.75V4.23683C10.25 3.977 10.2128 3.77836 10.1398 3.62727C9.69114 2.69983 8.66593 1.5 7 1.5C5.33407 1.5 4.30886 2.69983 3.86024 3.62727C3.78716 3.77836 3.75 3.977 3.75 4.23683V4.75H10.25ZM8 10.75C8 11.8546 7.55228 12.75 7 12.75C6.44772 12.75 6 11.8546 6 10.75C6 9.64543 6.44772 8.75 7 8.75C7.55228 8.75 8 9.64543 8 10.75Z" fill="#414141"/>
</svg>
