<svg width="19" height="15" viewBox="0 0 19 15" fill="none" xmlns="http://www.w3.org/2000/svg">
<path opacity="0.85" fill-rule="evenodd" clip-rule="evenodd" d="M4 0C1.79086 0 0 1.79086 0 4V11C0 13.2091 1.79086 15 4 15H15C17.2091 15 19 13.2091 19 11V4C19 1.79086 17.2091 0 15 0H4ZM4.31662 4.61302C4.1029 4.43816 3.78789 4.46966 3.61302 4.68338C3.43816 4.8971 3.46966 5.21211 3.68338 5.38698L7.28367 8.33267C8.57295 9.38753 10.4271 9.38753 11.7163 8.33267L15.3166 5.38698C15.5303 5.21211 15.5618 4.8971 15.387 4.68338C15.2121 4.46966 14.8971 4.43816 14.6834 4.61302L11.0831 7.55871C10.1622 8.31219 8.83782 8.31219 7.91691 7.55871L4.31662 4.61302Z" fill="#414141"/>
</svg>
