<svg width="21" height="21" viewBox="0 0 21 21" fill="none" xmlns="http://www.w3.org/2000/svg">
<g clip-path="url(#clip0_80_2644)">
<path d="M16.1467 21H14.6533C13.6481 20.7069 12.6 20.5128 11.6443 20.104C8.33747 18.69 5.65787 16.4341 3.40293 13.664C1.91987 11.844 0.740133 9.8532 0.233333 7.5264C0.122267 7.01587 0.0765333 6.49133 0 5.97333C0 5.8492 0 5.72413 0 5.6C0.0242667 5.48053 0.0578667 5.36107 0.07 5.24067C0.3276 2.69733 1.6352 0.9464 4.01333 0H4.85333C5.7484 0.2072 6.3896 0.741067 6.90013 1.49333C7.2828 2.058 7.7364 2.57507 8.1564 3.11453C8.946 4.12813 8.932 5.52627 8.1172 6.51933C7.6832 7.04853 7.22587 7.55813 6.8096 8.1004C6.7144 8.22453 6.66587 8.47933 6.72747 8.61467C7.88573 11.2037 9.76827 13.0825 12.3387 14.2772C12.5627 14.3808 12.7167 14.3855 12.9155 14.2053C13.4232 13.7471 13.9533 13.314 14.4825 12.8809C15.4812 12.0652 16.8728 12.054 17.8864 12.8445C18.4137 13.2552 18.9196 13.6976 19.4712 14.0719C20.2337 14.5889 20.7872 15.2357 21 16.1467V16.9867C20.5604 18.382 19.6084 19.3984 18.4175 20.1413C17.7445 20.5613 16.9092 20.7219 16.1467 21Z" fill="#414141"/>
</g>
<defs>
<clipPath id="clip0_80_2644">
<rect width="21" height="21" fill="white"/>
</clipPath>
</defs>
</svg>
