<svg width="13" height="15" viewBox="0 0 13 15" fill="none" xmlns="http://www.w3.org/2000/svg">
<g clip-path="url(#clip0_277_104)">
<path d="M6.29897 14.9999C4.71077 14.9699 3.03074 14.8783 1.40962 14.3572C1.03942 14.2385 0.688286 14.0459 0.348122 13.8529C0.0893893 13.7059 -0.0145657 13.4557 0.00102751 13.1439C0.0766836 11.6187 0.754701 10.4497 2.05529 9.64561C3.06828 9.01963 4.19272 8.74698 5.36395 8.64092C6.98449 8.49451 8.55248 8.67897 10.0223 9.42773C10.7153 9.78049 11.3298 10.2353 11.8346 10.8313C12.3636 11.4555 12.6835 12.168 12.795 12.983C12.8551 13.4228 12.7234 13.7698 12.3318 13.9399C11.7537 14.1912 11.1618 14.4333 10.5519 14.5832C9.19065 14.9163 7.79534 14.9855 6.29897 14.9999Z" fill="#414141"/>
<path d="M3.22949 3.25554C3.2601 2.0174 3.66668 0.981586 4.81885 0.411513C6.02588 -0.185651 7.25082 -0.146455 8.38046 0.615563C9.35706 1.2744 9.66373 2.2837 9.61926 3.40771C9.57826 4.44929 9.23809 5.39864 8.61147 6.23963C8.54275 6.33185 8.4694 6.4212 8.39259 6.50708C7.21386 7.82534 5.64818 7.83283 4.47349 6.50996C3.64878 5.58136 3.27454 4.47234 3.22949 3.25554Z" fill="#414141"/>
</g>
<defs>
<clipPath id="clip0_277_104">
<rect width="12.809" height="15" fill="white"/>
</clipPath>
</defs>
</svg>
