<svg width="58" height="58" viewBox="0 0 58 58" fill="none" xmlns="http://www.w3.org/2000/svg">
<path d="M21.2082 57.3334L20.0749 48.2668C19.461 48.0306 18.8821 47.7473 18.3381 47.4168C17.7941 47.0862 17.2633 46.732 16.7457 46.3543L8.31657 49.8959L0.524902 36.4376L7.82074 30.9126C7.77351 30.582 7.7499 30.2628 7.7499 29.9549V28.0452C7.7499 27.7374 7.77351 27.4181 7.82074 27.0876L0.524902 21.5626L8.31657 8.10425L16.7457 11.6459C17.2652 11.2681 17.8082 10.914 18.3749 10.5834C18.9416 10.2529 19.5082 9.96953 20.0749 9.73341L21.2082 0.666748H36.7916L37.9249 9.73341C38.5388 9.96953 39.1177 10.2529 39.6617 10.5834C40.2057 10.914 40.7365 11.2681 41.2541 11.6459L49.6832 8.10425L57.4749 21.5626L50.1791 27.0876C50.2263 27.4181 50.2499 27.7374 50.2499 28.0452V29.9549C50.2499 30.2628 50.2027 30.582 50.1082 30.9126L57.4041 36.4376L49.6124 49.8959L41.2541 46.3543C40.7346 46.732 40.1916 47.0862 39.6249 47.4168C39.0582 47.7473 38.4916 48.0306 37.9249 48.2668L36.7916 57.3334H21.2082ZM28.9999 40.3334C29.8027 40.3334 30.4761 40.0614 31.0201 39.5174C31.5641 38.9734 31.8351 38.301 31.8332 37.5001C31.8332 36.6973 31.5612 36.0239 31.0172 35.4799C30.4732 34.9359 29.8008 34.6649 28.9999 34.6667C28.1971 34.6667 27.5237 34.9388 26.9797 35.4827C26.4357 36.0267 26.1647 36.6992 26.1666 37.5001C26.1666 38.3029 26.4386 38.9762 26.9826 39.5203C27.5266 40.0643 28.199 40.3353 28.9999 40.3334ZM26.1666 31.8334H31.8332V17.6667H26.1666V31.8334Z" fill="#8E7E71"/>
</svg>
