<svg width="38" height="32" viewBox="0 0 38 32" fill="none" xmlns="http://www.w3.org/2000/svg">
<path d="M11.1962 23.0047C17.4843 16.1736 23.6345 9.49629 29.7806 2.81895C30.2552 2.30058 30.7177 1.76464 31.2167 1.27262C32.8435 -0.339603 34.9125 -0.423071 36.2959 1.03979C37.7077 2.53341 37.7036 4.76066 36.1296 6.50467C32.6366 10.3749 29.0747 14.1748 25.5412 18.0055C21.8657 21.99 18.1983 25.9832 14.5106 29.9588C11.9751 32.6957 10.4294 32.6825 7.84116 29.9061C5.68291 27.5866 3.53684 25.2583 1.41105 22.9081C-0.300936 21.0147 -0.455096 18.8797 0.948574 17.2807C2.41715 15.6113 4.46586 15.7124 6.29956 17.6365C7.89795 19.3146 9.43144 21.0674 11.1962 23.0047Z" fill="#8E7E71"/>
</svg>
